<svg width="24" height="24" viewBox="0 0 24 24" fill="none" xmlns="http://www.w3.org/2000/svg">
<path d="M15.8285 13H14.8619H9V16H10.6444H15.8285C17.0209 16 18 15.3216 18 14.4947C18 13.6678 17.0209 13 15.8285 13Z" fill="#246BFD"/>
<path d="M12 0C5.376 0 0 5.376 0 12C0 18.624 5.376 24 12 24C18.624 24 24 18.624 24 12C24 5.376 18.624 0 12 0ZM15.564 18.096H13.584V19.8C13.584 20.292 13.176 20.7 12.684 20.7C12.192 20.7 11.784 20.292 11.784 19.8V18.096H10.608H10.332V19.8C10.332 20.292 9.924 20.7 9.432 20.7C8.94 20.7 8.532 20.292 8.532 19.8V18.096H8.136H6.06C5.568 18.096 5.16 17.688 5.16 17.196C5.16 16.704 5.568 16.296 6.06 16.296H7.236V12V7.704H6.06C5.568 7.704 5.16 7.296 5.16 6.804C5.16 6.312 5.568 5.904 6.06 5.904H8.136H8.532V4.2C8.532 3.708 8.94 3.3 9.432 3.3C9.924 3.3 10.332 3.708 10.332 4.2V5.904H10.608H11.784V4.2C11.784 3.708 12.192 3.3 12.684 3.3C13.176 3.3 13.584 3.708 13.584 4.2V5.904H14.64C16.5 5.904 18.144 7.536 18.144 9.408C18.144 10.212 17.856 10.944 17.4 11.544C18.612 12.132 19.44 13.284 19.44 14.616C19.44 16.524 17.7 18.096 15.564 18.096Z" fill="#246BFD"/>
<path d="M16 9.50524C16 8.80562 15.2874 8 14.3678 8H10.5057H9V10.9999H14.3678C15.2644 11.0105 16 10.3321 16 9.50524Z" fill="#246BFD"/>
</svg>
