<svg width="24" height="24" viewBox="0 0 24 24" fill="none" xmlns="http://www.w3.org/2000/svg">
<path d="M17.3467 0.0379184L23.12 2.14477C23.6533 2.33145 24 2.83817 24 3.39822V7.5719C24 8.45197 23.1467 9.09204 22.3067 8.85202L19.3333 7.99861V21.9998C19.3333 23.1066 18.44 24 17.3333 24H6.66667C5.56 24 4.66667 23.1066 4.66667 21.9998V7.99861L1.69333 8.85202C0.840001 9.09204 0 8.45197 0 7.5719V3.39822C0 2.83817 0.346666 2.33145 0.88 2.14477L6.65334 0.0379184C7 -0.082092 7.38666 0.0912604 7.50666 0.437957C7.89333 1.57139 9.01333 3.79825 12 3.79825C14.9867 3.79825 16.1067 1.57139 16.4933 0.437957C16.6133 0.0912604 17 -0.082092 17.3467 0.0379184Z" fill="#246BFD"/>
</svg>
