<svg width="24" height="24" viewBox="0 0 24 24" fill="none" xmlns="http://www.w3.org/2000/svg">
<path d="M17.0365 0H6.97548C2.6053 0 0 2.604 0 6.972V17.016C0 21.396 2.6053 24 6.97548 24H17.0245C21.3947 24 24 21.396 24 17.028V6.972C24.012 2.604 21.4067 0 17.0365 0ZM18.9214 15.216C19.3176 15.516 19.4017 16.08 19.1015 16.476C18.9214 16.716 18.6573 16.836 18.3812 16.836C18.1891 16.836 18.009 16.776 17.8409 16.656L13.0985 13.116L10.2051 15.276C10.2171 15.396 10.2411 15.516 10.2411 15.636C10.2411 17.16 9.00449 18.396 7.47973 18.396C5.95497 18.396 4.71835 17.16 4.71835 15.636C4.71835 14.112 5.95497 12.876 7.47973 12.876C8.2241 12.876 8.88443 13.176 9.37667 13.644L11.5858 11.988L9.38868 10.344C8.89643 10.824 8.21209 11.124 7.46772 11.124C5.94296 11.124 4.70635 9.888 4.70635 8.364C4.70635 6.84 5.94296 5.604 7.46772 5.604C8.99248 5.604 10.2291 6.84 10.2291 8.364C10.2291 8.484 10.2051 8.592 10.1931 8.7L13.0745 10.86L17.8169 7.32C18.2131 7.02 18.7774 7.104 19.0775 7.5C19.3777 7.896 19.2936 8.46 18.8974 8.76L14.5753 11.988L18.9214 15.216Z" fill="#246BFD"/>
</svg>
