<svg width="24" height="24" viewBox="0 0 24 24" fill="none" xmlns="http://www.w3.org/2000/svg">
<path d="M12.75 15.92H13.4C14.05 15.92 14.59 15.34 14.59 14.64C14.59 13.77 14.28 13.6 13.77 13.42L12.76 13.07V15.92H12.75Z" fill="#246BFD"/>
<path d="M11.964 2.01399e-05C5.34004 0.02402 -0.0239196 5.412 8.02233e-05 12.036C0.0240801 18.6599 5.41204 24.0239 12.036 23.9999C18.66 23.9759 24.0239 18.5879 23.9999 11.964C23.9759 5.34 18.588 -0.0119798 11.964 2.01399e-05ZM14.712 12.12C15.648 12.444 16.908 13.14 16.908 15.288C16.908 17.1359 15.456 18.6239 13.68 18.6239H12.9V19.3199C12.9 19.8119 12.492 20.2199 12 20.2199C11.508 20.2199 11.1 19.8119 11.1 19.3199V18.6239H10.668C8.70002 18.6239 7.10403 16.9679 7.10403 14.928C7.10403 14.436 7.51203 14.028 8.00403 14.028C8.49602 14.028 8.90402 14.436 8.90402 14.928C8.90402 15.972 9.69602 16.8239 10.668 16.8239H11.1V12.768L9.28802 12.12C8.35202 11.796 7.09203 11.1 7.09203 8.95198C7.09203 7.10399 8.54402 5.616 10.32 5.616H11.1V4.92C11.1 4.428 11.508 4.02 12 4.02C12.492 4.02 12.9 4.428 12.9 4.92V5.616H13.332C15.3 5.616 16.896 7.27199 16.896 9.31198C16.896 9.80398 16.488 10.212 15.996 10.212C15.504 10.212 15.096 9.80398 15.096 9.31198C15.096 8.26798 14.304 7.41599 13.332 7.41599H12.9V11.472L14.712 12.12Z" fill="#246BFD"/>
<path d="M9.41992 9.37C9.41992 10.24 9.72992 10.41 10.2399 10.59L11.2499 10.94V8.08H10.5999C9.94992 8.08 9.41992 8.66 9.41992 9.37Z" fill="#246BFD"/>
</svg>
