<svg width="24" height="24" viewBox="0 0 24 24" fill="none" xmlns="http://www.w3.org/2000/svg">
<path d="M21.0401 13.28L20.1201 12.38L12.3701 20.12L13.3001 21.05C14.0801 21.83 14.8901 22.22 15.6901 22.22C16.4901 22.22 17.3001 21.83 18.0801 21.05L21.0401 18.09C22.6301 16.49 22.6301 14.88 21.0401 13.28Z" fill="#246BFD"/>
<path d="M10.6898 2.93C9.11976 1.36 7.46977 1.36 5.89977 2.93L2.92977 5.89C1.36977 7.46 1.36977 9.11 2.92977 10.68L3.84977 11.6L11.5998 3.85L10.6898 2.93Z" fill="#246BFD"/>
<path d="M21.8098 3.94C20.4998 7.21 17.5098 11.48 14.6598 14.27C14.2498 11.69 12.1898 9.67 9.58984 9.31C12.3898 6.45 16.6898 3.42 19.9698 2.1C20.5498 1.88 21.1298 2.05 21.4898 2.41C21.8698 2.79 22.0498 3.36 21.8098 3.94Z" fill="#246BFD"/>
<path d="M13.7801 15.09C13.5801 15.26 13.3801 15.43 13.1801 15.59L11.3901 17.02C11.3901 16.99 11.3801 16.95 11.3801 16.91C11.2401 15.84 10.7401 14.85 9.93012 14.04C9.11012 13.22 8.09012 12.72 6.97012 12.58C6.94012 12.58 6.90012 12.57 6.87012 12.57L8.32012 10.74C8.46012 10.56 8.61012 10.39 8.77012 10.21L9.45012 10.3C11.6001 10.6 13.3301 12.29 13.6701 14.43L13.7801 15.09Z" fill="#246BFD"/>
<path d="M10.4298 17.62C10.4298 18.72 10.0098 19.77 9.20976 20.56C8.59976 21.18 7.77977 21.6 6.77977 21.72L4.32976 21.99C2.98976 22.14 1.83976 20.99 1.98976 19.64L2.25976 17.18C2.49976 14.99 4.32976 13.59 6.26976 13.55C6.45976 13.54 6.66976 13.55 6.86976 13.57C7.71976 13.68 8.53976 14.07 9.22976 14.75C9.89976 15.42 10.2798 16.21 10.3898 17.04C10.4098 17.24 10.4298 17.43 10.4298 17.62Z" fill="#246BFD"/>
</svg>
