<svg width="24" height="24" viewBox="0 0 24 24" fill="none" xmlns="http://www.w3.org/2000/svg">
<path d="M6.16143 21.1074C5.24529 22.0236 1.76155 22.8915 1.37581 22.9879C1.3517 22.9879 1.32759 22.9879 1.30348 22.9879C1.2191 22.9879 1.14678 22.9518 1.08651 22.9036C1.01418 22.8312 0.978024 22.7227 1.01419 22.6142C1.12268 22.2044 2.11115 18.5759 3.01523 17.6597C3.48536 17.1896 4.1001 16.9244 4.71488 16.9485C5.30555 16.9606 5.88419 17.2137 6.33021 17.6597C7.23429 18.5638 7.14988 20.1068 6.14936 21.1074H6.16143ZM7.01728 6.20767C4.84748 6.55726 2.99112 8.05206 2.18347 10.0893L1.02622 12.9704C0.977999 13.0669 1.00212 13.1874 1.07445 13.2718C1.13472 13.3441 1.2191 13.3803 1.30348 13.3803C1.32759 13.3803 1.35169 13.3803 1.36374 13.3682L5.42612 12.4641C6.19761 9.96877 6.95702 7.96767 8.41561 5.91836L7.01728 6.20767ZM11.5618 18.5759C14.033 17.8767 16.034 17.1534 18.0953 15.7068L17.8181 17.0088C17.4806 19.1666 15.9858 21.011 13.9366 21.8186L11.0555 22.9759C11.0555 22.9759 10.9832 23 10.947 23C10.8747 23 10.8024 22.9759 10.7542 22.9277C10.6698 22.8553 10.6336 22.7468 10.6578 22.6384L11.5618 18.5759ZM7.65617 9.76383L14.2982 16.394C13.5388 16.7074 12.7432 16.9726 11.8632 17.2258C11.2846 17.3945 10.6577 17.5633 10.0068 17.7441C9.95858 17.7441 9.89831 17.7682 9.85009 17.7682C9.69338 17.7682 9.53669 17.7079 9.41615 17.5874L6.3784 14.5496C6.22169 14.3929 6.16142 14.1518 6.23375 13.9468C6.42662 13.32 6.60743 12.7293 6.78825 12.1627C7.0655 11.3069 7.34275 10.5112 7.65617 9.76383ZM22.7242 1.69918C22.676 1.45808 22.4952 1.27726 22.2421 1.22904C21.7358 1.1326 20.7835 1 19.5901 1C17.2757 1 14.0812 1.51835 11.6944 3.91726C11.0917 4.52 10.5734 5.08657 10.1153 5.64109C9.30764 6.62959 8.69287 7.59397 8.19863 8.60657C8.19863 8.60657 8.20666 8.61059 8.22273 8.61863L15.4554 15.8394L15.4795 15.8636C16.468 15.3934 17.3962 14.8027 18.3605 14.0312C18.9391 13.5611 19.5419 13.0186 20.1687 12.3918C23.7971 8.76328 23.0135 3.20603 22.7242 1.69918ZM16.0702 10.6679C14.5754 10.6679 13.3579 9.46246 13.3579 7.96767C13.3579 6.47288 14.5754 5.25534 16.0702 5.25534C17.5649 5.25534 18.7824 6.47288 18.7824 7.96767C18.7824 9.46246 17.5649 10.6679 16.0702 10.6679Z" fill="#246BFD"/>
</svg>
