<svg width="24" height="24" viewBox="0 0 24 24" fill="none" xmlns="http://www.w3.org/2000/svg">
<path d="M20.8904 5.17999V16.48C20.8904 18.46 19.2804 20.07 17.3004 20.07C15.3304 20.07 13.7104 18.46 13.7104 16.48C13.7104 14.51 15.3304 12.9 17.3004 12.9C18.1404 12.9 18.8904 13.19 19.5004 13.67V7.71999L10.2904 10.34V18.41C10.2904 20.39 8.67035 22 6.70035 22C4.72035 22 3.11035 20.39 3.11035 18.41C3.11035 16.44 4.72035 14.83 6.70035 14.83C7.53035 14.83 8.28035 15.12 8.89035 15.59V6.74999C8.89035 5.27999 9.78035 4.13999 11.1904 3.75999L16.9704 2.17999C18.1404 1.85999 19.1304 1.96999 19.8304 2.50999C20.5403 3.03999 20.8904 3.93999 20.8904 5.17999Z" fill="#246BFD"/>
</svg>
