<svg width="24" height="24" viewBox="0 0 24 24" fill="none" xmlns="http://www.w3.org/2000/svg">
<path d="M19.3786 4.8C18.6284 4.8 17.9398 4.38 17.5954 3.732L16.71 1.992C16.1443 0.9 14.6686 0 13.4142 0H10.5981C9.33141 0 7.8557 0.9 7.29001 1.992L6.40458 3.732C6.06025 4.38 5.37158 4.8 4.62142 4.8C1.95284 4.8 -0.162353 6.996 0.00981355 9.588L0.64929 19.5C0.796862 21.972 2.1619 24 5.55604 24H18.444C21.8381 24 23.1908 21.972 23.3507 19.5L23.9902 9.588C24.1624 6.996 22.0472 4.8 19.3786 4.8ZM10.1554 6.3H13.8446C14.3488 6.3 14.767 6.708 14.767 7.2C14.767 7.692 14.3488 8.1 13.8446 8.1H10.1554C9.65115 8.1 9.23303 7.692 9.23303 7.2C9.23303 6.708 9.65115 6.3 10.1554 6.3ZM12 19.344C9.71264 19.344 7.8434 17.532 7.8434 15.288C7.8434 13.044 9.70034 11.232 12 11.232C14.2997 11.232 16.1566 13.044 16.1566 15.288C16.1566 17.532 14.2874 19.344 12 19.344Z" fill="#246BFD"/>
</svg>
