<svg width="24" height="24" viewBox="0 0 24 24" fill="none" xmlns="http://www.w3.org/2000/svg">
<path d="M12 0C5.376 0 0 5.376 0 12C0 18.624 5.376 24 12 24C18.624 24 24 18.624 24 12C24 5.376 18.624 0 12 0ZM9.3 14.028C9.66 14.376 9.66 14.952 9.3 15.3C9.132 15.48 8.892 15.564 8.664 15.564C8.436 15.564 8.208 15.48 8.028 15.3L5.364 12.636C5.016 12.288 5.016 11.712 5.364 11.364L8.028 8.7C8.376 8.34 8.952 8.34 9.3 8.7C9.66 9.048 9.66 9.624 9.3 9.972L7.272 12L9.3 14.028ZM14.076 7.41599L11.676 17.016C11.568 17.424 11.208 17.7 10.8 17.7C10.728 17.7 10.656 17.688 10.584 17.676C10.104 17.556 9.80401 17.064 9.92401 16.584L12.324 6.98401C12.444 6.50401 12.936 6.20399 13.416 6.32399C13.896 6.44399 14.196 6.93599 14.076 7.41599ZM18.636 12.636L15.972 15.3C15.792 15.48 15.564 15.564 15.336 15.564C15.108 15.564 14.868 15.48 14.7 15.3C14.34 14.952 14.34 14.376 14.7 14.028L16.728 12L14.7 9.972C14.34 9.624 14.34 9.048 14.7 8.7C15.048 8.34 15.624 8.34 15.972 8.7L18.636 11.364C18.984 11.712 18.984 12.288 18.636 12.636Z" fill="#246BFD"/>
</svg>
