<svg width="24" height="24" viewBox="0 0 24 24" fill="none" xmlns="http://www.w3.org/2000/svg">
<path d="M20.688 4.11663H20.208L16.152 0.232692C15.828 -0.0775639 15.3 -0.0775639 14.964 0.232692C14.64 0.542948 14.64 1.04855 14.964 1.3703L17.832 4.11663H6.168L9.036 1.3703C9.36 1.06004 9.36 0.554438 9.036 0.232692C8.712 -0.0775639 8.184 -0.0775639 7.848 0.232692L3.804 4.11663H3.324C2.244 4.11663 0 4.11663 0 7.05832C0 8.17294 0.24 8.90836 0.744 9.39098C1.032 9.67825 1.38 9.82764 1.752 9.90807C2.1 9.98851 2.472 10 2.832 10H21.168C21.54 10 21.888 9.97702 22.224 9.90807C23.232 9.67825 24 8.9888 24 7.05832C24 4.11663 21.756 4.11663 20.688 4.11663Z" fill="#246BFD"/>
<path d="M20.7656 12H3.24019C2.47392 12 1.89304 12.66 2.01663 13.392L3.05481 19.56C3.40086 21.624 4.32781 24 8.44343 24H15.377C19.542 24 20.2836 21.972 20.7285 19.704L21.9768 13.428C22.1251 12.684 21.5442 12 20.7656 12ZM12.0523 21C9.16026 21 6.79965 18.708 6.79965 15.9C6.79965 15.408 7.21986 15 7.72659 15C8.23332 15 8.65354 15.408 8.65354 15.9C8.65354 17.724 10.1737 19.2 12.0523 19.2C13.9309 19.2 15.4511 17.724 15.4511 15.9C15.4511 15.408 15.8713 15 16.3781 15C16.8848 15 17.305 15.408 17.305 15.9C17.305 18.708 14.9444 21 12.0523 21Z" fill="#246BFD"/>
</svg>
