<svg width="24" height="24" viewBox="0 0 24 24" fill="none" xmlns="http://www.w3.org/2000/svg">
<path d="M12 0C5.376 0 0 5.376 0 12C0 18.624 5.376 24 12 24C18.624 24 24 18.624 24 12C24 5.376 18.624 0 12 0ZM18 18.564C15.948 18.564 14.028 17.676 12.492 16.032C10.752 17.604 8.484 18.564 6 18.564C5.508 18.564 5.1 18.156 5.1 17.664C5.1 17.172 5.508 16.764 6 16.764C10.164 16.764 13.608 13.464 14.052 9.24H12H6.012C5.52 9.24 5.112 8.832 5.112 8.34C5.112 7.848 5.52 7.452 6.012 7.452H11.1V6.336C11.1 5.844 11.508 5.436 12 5.436C12.492 5.436 12.9 5.844 12.9 6.336V7.452H14.928C14.952 7.452 14.976 7.44 15 7.44C15.024 7.44 15.048 7.452 15.072 7.452H17.988C18.48 7.452 18.888 7.86 18.888 8.352C18.888 8.844 18.48 9.252 17.988 9.252H15.852C15.672 11.304 14.904 13.188 13.728 14.724C14.928 16.056 16.428 16.776 18 16.776C18.492 16.776 18.9 17.184 18.9 17.676C18.9 18.168 18.492 18.564 18 18.564Z" fill="#246BFD"/>
</svg>
