<svg width="24" height="24" viewBox="0 0 24 24" fill="none" xmlns="http://www.w3.org/2000/svg">
<path d="M8 2.92208V0.974026C8 0.441558 7.77333 0 7.5 0C7.22667 0 7 0.441558 7 0.974026V3C7.16667 2.96104 7.32 2.92208 7.5 2.92208H8Z" fill="#246BFD"/>
<path d="M17 3V0.974026C17 0.441558 16.7733 0 16.5 0C16.2267 0 16 0.441558 16 0.974026V2.92208H16.5C16.68 2.92208 16.8333 2.96104 17 3Z" fill="#246BFD"/>
<path d="M17.2778 3.06486V4.62162C17.2778 5.06486 16.9 5.43243 16.4444 5.43243C15.9889 5.43243 15.6111 5.06486 15.6111 4.62162V3H8.38889V4.62162C8.38889 5.06486 8.01111 5.43243 7.55556 5.43243C7.1 5.43243 6.72222 5.06486 6.72222 4.62162V3.06486C3.44444 3.35676 2 5.41081 2 8.40541V17.5946C2 20.8378 3.66667 23 7.55556 23H16.4444C20.3333 23 22 20.8378 22 17.5946V8.40541C22 5.41081 20.5556 3.35676 17.2778 3.06486ZM12 17.3243H7.55556C7.1 17.3243 6.72222 16.9568 6.72222 16.5135C6.72222 16.0703 7.1 15.7027 7.55556 15.7027H12C12.4556 15.7027 12.8333 16.0703 12.8333 16.5135C12.8333 16.9568 12.4556 17.3243 12 17.3243ZM16.4444 11.9189H7.55556C7.1 11.9189 6.72222 11.5514 6.72222 11.1081C6.72222 10.6649 7.1 10.2973 7.55556 10.2973H16.4444C16.9 10.2973 17.2778 10.6649 17.2778 11.1081C17.2778 11.5514 16.9 11.9189 16.4444 11.9189Z" fill="#246BFD"/>
</svg>
