<svg width="65" height="33" viewBox="0 0 65 33" fill="none" xmlns="http://www.w3.org/2000/svg">
<path d="M32.4004 26.58C32.1004 26.58 31.8004 26.51 31.5504 26.37C29.6804 25.35 26.3904 24.27 24.3304 24L24.0404 23.96C22.7304 23.8 21.6504 22.57 21.6504 21.24V9.16001C21.6504 8.37001 21.9604 7.65001 22.5304 7.13001C23.1004 6.61001 23.8404 6.36001 24.6204 6.43001C26.8204 6.60001 30.1404 7.70001 32.0204 8.88001L32.2604 9.02001C32.3304 9.06001 32.4804 9.06001 32.5404 9.03001L32.7004 8.93001C34.5804 7.75001 37.9004 6.63001 40.1104 6.44001C40.1304 6.44001 40.2104 6.44001 40.2304 6.44001C40.9604 6.37001 41.7104 6.63001 42.2704 7.15001C42.8404 7.67001 43.1504 8.39001 43.1504 9.18001V21.25C43.1504 22.59 42.0704 23.81 40.7504 23.97L40.4204 24.01C38.3604 24.28 35.0604 25.37 33.2304 26.38C32.9904 26.52 32.7004 26.58 32.4004 26.58ZM24.3804 7.92001C24.0604 7.92001 23.7704 8.03001 23.5404 8.24001C23.2904 8.47001 23.1504 8.80001 23.1504 9.16001V21.24C23.1504 21.83 23.6604 22.4 24.2304 22.48L24.5304 22.52C26.7804 22.82 30.2304 23.95 32.2304 25.04C32.3204 25.08 32.4504 25.09 32.5004 25.07C34.5004 23.96 37.9704 22.82 40.2304 22.52L40.5704 22.48C41.1404 22.41 41.6504 21.83 41.6504 21.24V9.17001C41.6504 8.80001 41.5104 8.48001 41.2604 8.24001C41.0004 8.01001 40.6704 7.90001 40.3004 7.92001C40.2804 7.92001 40.2004 7.92001 40.1804 7.92001C38.2704 8.09001 35.1904 9.12001 33.5104 10.17L33.3504 10.28C32.8004 10.62 32.0204 10.62 31.4904 10.29L31.2504 10.15C29.5404 9.10001 26.4604 8.08001 24.5004 7.92001C24.4604 7.92001 24.4204 7.92001 24.3804 7.92001Z" fill="#909090"/>
<path d="M32.4004 25.74C31.9904 25.74 31.6504 25.4 31.6504 24.99V9.98999C31.6504 9.57999 31.9904 9.23999 32.4004 9.23999C32.8104 9.23999 33.1504 9.57999 33.1504 9.98999V24.99C33.1504 25.41 32.8104 25.74 32.4004 25.74Z" fill="#909090"/>
<path d="M28.1504 13.74H25.9004C25.4904 13.74 25.1504 13.4 25.1504 12.99C25.1504 12.58 25.4904 12.24 25.9004 12.24H28.1504C28.5604 12.24 28.9004 12.58 28.9004 12.99C28.9004 13.4 28.5604 13.74 28.1504 13.74Z" fill="#909090"/>
<path d="M28.9004 16.74H25.9004C25.4904 16.74 25.1504 16.4 25.1504 15.99C25.1504 15.58 25.4904 15.24 25.9004 15.24H28.9004C29.3104 15.24 29.6504 15.58 29.6504 15.99C29.6504 16.4 29.3104 16.74 28.9004 16.74Z" fill="#909090"/>
</svg>
