<svg width="64" height="33" viewBox="0 0 64 33" fill="none" xmlns="http://www.w3.org/2000/svg">
<path d="M35.31 19.52C34.73 19.52 34.1 19.33 33.47 18.94L32.15 18.14C32.09 18.1 31.91 18.1 31.85 18.14L30.53 18.94C29.45 19.6 28.39 19.7 27.54 19.22C26.71 18.75 26.25 17.81 26.25 16.58V9.53C26.25 7.09 27.58 5.75 30 5.75H34C36.42 5.75 37.75 7.09 37.75 9.53V16.58C37.75 17.82 37.29 18.76 36.46 19.22C36.11 19.42 35.72 19.52 35.31 19.52ZM32 16.61C32.33 16.61 32.66 16.69 32.93 16.85L34.25 17.65C34.84 18.01 35.38 18.1 35.72 17.91C36.05 17.72 36.24 17.23 36.24 16.57V9.53C36.24 7.93 35.57 7.25 33.99 7.25H29.99C28.41 7.25 27.74 7.93 27.74 9.53V16.58C27.74 17.24 27.93 17.73 28.26 17.92C28.6 18.11 29.14 18.02 29.73 17.66L31.05 16.86C31.34 16.69 31.67 16.61 32 16.61Z" fill="#909090"/>
<path d="M35 27.25H29C23.57 27.25 21.25 24.91 21.25 19.43V16.4C21.25 11.74 22.93 9.38001 26.69 8.75001C27.09 8.68001 27.48 8.96001 27.55 9.37001C27.62 9.78001 27.34 10.16 26.93 10.23C23.92 10.73 22.74 12.46 22.74 16.4V19.43C22.74 24.04 24.43 25.75 28.99 25.75H34.99C39.55 25.75 41.24 24.04 41.24 19.43V16.4C41.24 12.4 40.02 10.67 36.88 10.2C36.47 10.14 36.19 9.76001 36.25 9.35001C36.31 8.94001 36.69 8.66001 37.1 8.72001C41 9.30001 42.74 11.66 42.74 16.4V19.43C42.75 24.91 40.43 27.25 35 27.25Z" fill="#909090"/>
</svg>
