<svg width="65" height="33" viewBox="0 0 65 33" fill="none" xmlns="http://www.w3.org/2000/svg">
<path d="M32.7998 23.25C32.3898 23.25 32.0498 22.91 32.0498 22.5V19.5C32.0498 19.09 32.3898 18.75 32.7998 18.75C33.2098 18.75 33.5498 19.09 33.5498 19.5V22.5C33.5498 22.91 33.2098 23.25 32.7998 23.25Z" fill="#909090"/>
<path d="M38.3998 27.06H27.1998C25.3798 27.06 23.7198 25.66 23.4198 23.87L22.0898 15.9C21.8698 14.66 22.4798 13.07 23.4698 12.28L30.3998 6.73001C31.7398 5.65001 33.8498 5.66001 35.1998 6.74001L42.1298 12.28C43.1098 13.07 43.7098 14.66 43.5098 15.9L42.1798 23.86C41.8798 25.63 40.1798 27.06 38.3998 27.06ZM32.7898 7.43001C32.2598 7.43001 31.7298 7.59001 31.3398 7.90001L24.4098 13.46C23.8498 13.91 23.4498 14.95 23.5698 15.66L24.8998 23.62C25.0798 24.67 26.1298 25.56 27.1998 25.56H38.3998C39.4698 25.56 40.5198 24.67 40.6998 23.61L42.0298 15.65C42.1398 14.95 41.7398 13.89 41.1898 13.45L34.2598 7.91001C33.8598 7.59001 33.3198 7.43001 32.7898 7.43001Z" fill="#909090"/>
</svg>
