<svg width="20" height="20" viewBox="0 0 20 20" fill="none" xmlns="http://www.w3.org/2000/svg">
<path d="M9.1665 17.2917C4.68317 17.2917 1.0415 13.65 1.0415 9.16666C1.0415 4.68332 4.68317 1.04166 9.1665 1.04166C13.6498 1.04166 17.2915 4.68332 17.2915 9.16666C17.2915 13.65 13.6498 17.2917 9.1665 17.2917ZM9.1665 2.29166C5.37484 2.29166 2.2915 5.37499 2.2915 9.16666C2.2915 12.9583 5.37484 16.0417 9.1665 16.0417C12.9582 16.0417 16.0415 12.9583 16.0415 9.16666C16.0415 5.37499 12.9582 2.29166 9.1665 2.29166Z" fill="#246BFD"/>
<path d="M16.8001 18.9917C16.7334 18.9917 16.6667 18.9833 16.6084 18.975C16.2167 18.925 15.5084 18.6583 15.1084 17.4667C14.9001 16.8417 14.9751 16.2167 15.3167 15.7417C15.6584 15.2667 16.2334 15 16.8917 15C17.7417 15 18.4084 15.325 18.7084 15.9C19.0084 16.475 18.9251 17.2083 18.4501 17.9167C17.8584 18.8083 17.2167 18.9917 16.8001 18.9917ZM16.3001 17.075C16.4417 17.5083 16.6417 17.725 16.7751 17.7417C16.9084 17.7583 17.1584 17.6 17.4167 17.225C17.6584 16.8667 17.6751 16.6083 17.6167 16.4917C17.5584 16.375 17.3251 16.25 16.8917 16.25C16.6334 16.25 16.4417 16.3333 16.3334 16.475C16.2334 16.6167 16.2167 16.8333 16.3001 17.075Z" fill="#246BFD"/>
</svg>
