<svg width="65" height="33" viewBox="0 0 65 33" fill="none" xmlns="http://www.w3.org/2000/svg">
<path d="M32.2002 20.25C30.1302 20.25 28.4502 18.57 28.4502 16.5C28.4502 14.43 30.1302 12.75 32.2002 12.75C34.2702 12.75 35.9502 14.43 35.9502 16.5C35.9502 18.57 34.2702 20.25 32.2002 20.25ZM32.2002 14.25C30.9602 14.25 29.9502 15.26 29.9502 16.5C29.9502 17.74 30.9602 18.75 32.2002 18.75C33.4402 18.75 34.4502 17.74 34.4502 16.5C34.4502 15.26 33.4402 14.25 32.2002 14.25Z" fill="#909090"/>
<path d="M35.4102 26.69C35.2002 26.69 34.9902 26.66 34.7802 26.61C34.1602 26.44 33.6402 26.05 33.3102 25.5L33.1902 25.3C32.6002 24.28 31.7902 24.28 31.2002 25.3L31.0902 25.49C30.7602 26.05 30.2402 26.45 29.6202 26.61C28.9902 26.78 28.3402 26.69 27.7902 26.36L26.0702 25.37C25.4602 25.02 25.0202 24.45 24.8302 23.76C24.6502 23.07 24.7402 22.36 25.0902 21.75C25.3802 21.24 25.4602 20.78 25.2902 20.49C25.1202 20.2 24.6902 20.03 24.1002 20.03C22.6402 20.03 21.4502 18.84 21.4502 17.38V15.62C21.4502 14.16 22.6402 12.97 24.1002 12.97C24.6902 12.97 25.1202 12.8 25.2902 12.51C25.4602 12.22 25.3902 11.76 25.0902 11.25C24.7402 10.64 24.6502 9.92001 24.8302 9.24001C25.0102 8.55001 25.4502 7.98001 26.0702 7.63001L27.8002 6.64001C28.9302 5.97001 30.4202 6.36001 31.1002 7.51001L31.2202 7.71001C31.8102 8.73001 32.6202 8.73001 33.2102 7.71001L33.3202 7.52001C34.0002 6.36001 35.4902 5.97001 36.6302 6.65001L38.3502 7.64001C38.9602 7.99001 39.4002 8.56001 39.5902 9.25001C39.7702 9.94001 39.6802 10.65 39.3302 11.26C39.0402 11.77 38.9602 12.23 39.1302 12.52C39.3002 12.81 39.7302 12.98 40.3202 12.98C41.7802 12.98 42.9702 14.17 42.9702 15.63V17.39C42.9702 18.85 41.7802 20.04 40.3202 20.04C39.7302 20.04 39.3002 20.21 39.1302 20.5C38.9602 20.79 39.0302 21.25 39.3302 21.76C39.6802 22.37 39.7802 23.09 39.5902 23.77C39.4102 24.46 38.9702 25.03 38.3502 25.38L36.6202 26.37C36.2402 26.58 35.8302 26.69 35.4102 26.69ZM32.2002 22.99C33.0902 22.99 33.9202 23.55 34.4902 24.54L34.6002 24.73C34.7202 24.94 34.9202 25.09 35.1602 25.15C35.4002 25.21 35.6402 25.18 35.8402 25.06L37.5702 24.06C37.8302 23.91 38.0302 23.66 38.1102 23.36C38.1902 23.06 38.1502 22.75 38.0002 22.49C37.4302 21.51 37.3602 20.5 37.8002 19.73C38.2402 18.96 39.1502 18.52 40.2902 18.52C40.9302 18.52 41.4402 18.01 41.4402 17.37V15.61C41.4402 14.98 40.9302 14.46 40.2902 14.46C39.1502 14.46 38.2402 14.02 37.8002 13.25C37.3602 12.48 37.4302 11.47 38.0002 10.49C38.1502 10.23 38.1902 9.92001 38.1102 9.62001C38.0302 9.32001 37.8402 9.08001 37.5802 8.92001L35.8502 7.93001C35.4202 7.67001 34.8502 7.82001 34.5902 8.26001L34.4802 8.45001C33.9102 9.44001 33.0802 10 32.1902 10C31.3002 10 30.4702 9.44001 29.9002 8.45001L29.7902 8.25001C29.5402 7.83001 28.9802 7.68001 28.5502 7.93001L26.8202 8.93001C26.5602 9.08001 26.3602 9.33001 26.2802 9.63001C26.2002 9.93001 26.2402 10.24 26.3902 10.5C26.9602 11.48 27.0302 12.49 26.5902 13.26C26.1502 14.03 25.2402 14.47 24.1002 14.47C23.4602 14.47 22.9502 14.98 22.9502 15.62V17.38C22.9502 18.01 23.4602 18.53 24.1002 18.53C25.2402 18.53 26.1502 18.97 26.5902 19.74C27.0302 20.51 26.9602 21.52 26.3902 22.5C26.2402 22.76 26.2002 23.07 26.2802 23.37C26.3602 23.67 26.5502 23.91 26.8102 24.07L28.5402 25.06C28.7502 25.19 29.0002 25.22 29.2302 25.16C29.4702 25.1 29.6702 24.94 29.8002 24.73L29.9102 24.54C30.4802 23.56 31.3102 22.99 32.2002 22.99Z" fill="#909090"/>
</svg>
